<?xml version="1.0" encoding="utf-8"?>
<!-- Generator: Adobe Illustrator 23.0.4, SVG Export Plug-In . SVG Version: 6.00 Build 0)  -->
<svg version="1.1" id="icons" xmlns="http://www.w3.org/2000/svg" xmlns:xlink="http://www.w3.org/1999/xlink" x="0px" y="0px"
	 viewBox="0 0 512 512" style="enable-background:new 0 0 512 512;" xml:space="preserve">
<style type="text/css">
	.st0{fill:#FFFFFF;}
</style>
<path class="st0" d="M440,504V128c0-1-0.2-2.1-0.6-3.1c-0.4-1-1-1.9-1.7-2.6L368,52.7V24c0-13.2-10.8-24-24-24H168
	c-13.2,0-24,10.8-24,24v28.6l-69.7,69.7c-0.7,0.7-1.3,1.6-1.7,2.6c-0.4,1-0.6,2-0.6,3.1v376v0c0,1,0.2,2.1,0.6,3.1
	c0.3,0.7,0.8,1.3,1.2,1.8c0.2,0.2,0.3,0.5,0.5,0.8c0.4,0.4,0.9,0.6,1.3,0.9c0.4,0.3,0.8,0.6,1.3,0.8c1,0.4,2,0.6,3.1,0.6
	c0,0,0.1,0,0.1,0h143.9c0,0,0,0,0.1,0s0.1,0,0.1,0h208C436.5,512,440,508.4,440,504z M168,16h176c4.4,0,8,3.6,8,8v24H160V24
	C160,19.6,163.6,16,168,16z M144,428.7l-56,56V136h56V428.7z M160,136h56v348.7l-56-56V136z M227.3,120l-56-56h185.4l56,56H227.3z
	 M152,67.3l52.7,52.7H99.3L152,67.3z M152,443.3l52.7,52.7H99.3L152,443.3z M232,136h192v360H232L232,136z"/>
<path class="st0" d="M328,344.1c39.7,0,72-32.3,72-72s-32.3-72-72-72s-72,32.3-72,72S288.3,344.1,328,344.1z M328,216.1
	c30.9,0,56,25.1,56,56s-25.1,56-56,56s-56-25.1-56-56S297.1,216.1,328,216.1z"/>
<path class="st0" d="M328,312.1c17.6,0,32-14.4,32-32c0-15.5-21.7-40.5-26-45.4c-3-3.4-8.9-3.4-11.9,0c-4.3,4.8-26,29.8-26,45.4
	C296,297.7,310.4,312.1,328,312.1L328,312.1z M328,252.4c8.5,10.7,16,22.7,16,27.6c0,8.8-7.2,16-16,16s-16-7.2-16-16
	C312,275,319.5,263.1,328,252.4z"/>
<path class="st0" d="M392,368H264c-4.4,0-8,3.6-8,8s3.6,8,8,8h128c4.4,0,8-3.6,8-8S396.4,368,392,368z"/>
<path class="st0" d="M392,392H264c-4.4,0-8,3.6-8,8s3.6,8,8,8h128c4.4,0,8-3.6,8-8S396.4,392,392,392z"/>
<path class="st0" d="M360,416h-64c-4.4,0-8,3.6-8,8s3.6,8,8,8h64c4.4,0,8-3.6,8-8S364.4,416,360,416z"/>
</svg>
