<?xml version="1.0" standalone="no"?>
<!DOCTYPE svg PUBLIC "-//W3C//DTD SVG 20010904//EN"
 "http://www.w3.org/TR/2001/REC-SVG-20010904/DTD/svg10.dtd">
<svg version="1.0" xmlns="http://www.w3.org/2000/svg"
 width="600.000000pt" height="450.000000pt" viewBox="0 0 600.000000 450.000000"
 preserveAspectRatio="xMidYMid meet">

<g transform="translate(0.000000,450.000000) scale(0.100000,-0.100000)"
fill="#000000" stroke="none">
<path d="M1300 3667 c-28 -10 -37 -20 -47 -52 -14 -48 -78 -1637 -85 -2132 -3
-199 -3 -203 20 -225 l23 -23 743 -3 743 -2 -4 -98 c-2 -53 -11 -131 -20 -172
-8 -41 -15 -88 -14 -104 1 -15 -2 -33 -7 -40 -10 -14 -9 -27 2 -45 6 -9 5 -12
-2 -7 -6 3 -13 2 -17 -4 -3 -5 -2 -10 3 -10 6 0 8 -9 5 -20 -6 -23 -8 -24 -34
-10 -20 11 -28 -3 -8 -16 19 -12 844 -8 865 4 11 7 13 12 6 12 -8 0 -10 5 -6
13 4 6 -2 4 -13 -6 -20 -17 -21 -17 -28 5 -4 13 -8 28 -9 33 -1 6 -5 16 -9 23
-5 6 -5 18 -1 25 5 9 4 9 -6 0 -7 -6 -9 -17 -4 -24 12 -20 12 -49 0 -49 -6 0
-2 -7 8 -15 19 -15 19 -15 -3 -15 -12 0 -19 4 -16 10 3 6 0 10 -7 10 -10 0
-10 2 1 9 10 6 11 13 3 27 -6 11 -7 27 -1 42 8 22 8 23 -6 12 -9 -8 -15 -8
-15 -2 0 6 5 14 10 17 6 4 8 11 5 16 -4 5 -1 9 4 9 6 0 11 -4 11 -10 0 -10 36
-50 45 -50 2 0 2 14 -2 31 -4 21 -1 34 8 41 10 6 -1 8 -33 6 l-46 -3 -11 55
c-5 30 -13 89 -16 130 -3 41 -8 96 -10 122 l-5 48 728 0 c483 0 739 4 759 10
54 19 57 36 49 287 -6 224 -31 892 -61 1658 -8 215 -20 407 -26 428 -19 72
110 67 -1756 66 -1273 0 -1686 -3 -1713 -12z m3340 -194 c0 -32 3 -102 7 -155
l6 -98 -103 0 -102 0 7 -307 c4 -170 10 -312 12 -316 3 -5 50 -6 104 -3 l99 6
1 -63 c1 -34 3 -80 4 -102 1 -22 5 -142 10 -267 l7 -228 -76 0 -76 0 0 -35 0
-34 78 -3 77 -3 3 -77 3 -78 -1242 0 -1242 0 7 363 c3 199 8 499 11 667 3 168
8 414 11 548 l6 242 1194 0 1194 0 0 -57z m-3005 -72 c3 -5 1 -13 -5 -16 -8
-5 -7 -12 2 -23 11 -13 11 -14 -2 -10 -17 5 -27 58 -11 58 5 0 12 -4 16 -9z
m70 -21 c-1 -17 -8 -36 -15 -43 -10 -10 -11 -7 -5 11 4 13 2 22 -5 22 -8 0 -8
6 0 20 16 29 27 24 25 -10z m39 9 c-3 -5 -10 -7 -15 -3 -5 3 -7 10 -3 15 3 5
10 7 15 3 5 -3 7 -10 3 -15z m-204 -14 c0 -15 -6 -25 -14 -25 -22 0 -30 19
-11 26 13 6 14 8 3 15 -10 7 -9 9 5 9 12 0 17 -8 17 -25z m48 18 c-10 -2 -18
-11 -18 -20 0 -10 6 -13 18 -8 14 5 15 4 5 -6 -10 -10 -16 -10 -24 -2 -16 16
-4 43 18 42 17 -1 17 -2 1 -6z m69 -30 c-3 -10 -5 -4 -5 12 0 17 2 24 5 18 2
-7 2 -21 0 -30z m88 -3 c3 -5 1 -10 -4 -10 -6 0 -11 5 -11 10 0 6 2 10 4 10 3
0 8 -4 11 -10z m-157 -147 c-16 -2 -40 -2 -55 0 -16 2 -3 4 27 4 30 0 43 -2
28 -4z m2922 -38 c0 -8 9 -15 21 -15 11 0 17 -5 14 -10 -4 -6 -10 -8 -15 -5
-5 3 -12 0 -16 -6 -4 -7 -3 -10 2 -7 5 3 18 2 29 -3 16 -7 12 -8 -14 -6 -31 2
-34 5 -35 35 -1 17 2 32 7 32 4 0 7 -7 7 -15z m133 -2 c-7 -2 -21 -2 -30 0
-10 3 -4 5 12 5 17 0 24 -2 18 -5z m7 -23 c0 -5 -5 -10 -11 -10 -5 0 -7 5 -4
10 3 6 8 10 11 10 2 0 4 -4 4 -10z m-13 -38 c-10 -2 -26 -1 -35 3 -14 5 -14 8
-2 15 8 5 22 4 34 -3 19 -10 20 -11 3 -15z m-46 -18 l56 -7 7 -60 c3 -33 6
-111 6 -173 l0 -113 -44 3 c-24 2 -50 7 -57 12 -7 4 -28 7 -46 6 -35 -3 -43
13 -20 37 10 11 9 12 -2 6 -11 -6 -13 -4 -8 8 3 9 7 80 8 158 1 139 1 141 22
135 12 -3 47 -9 78 -12z m27 -363 c38 -1 42 -3 42 -26 0 -14 -6 -25 -12 -25
-8 0 -5 -7 6 -15 19 -14 19 -15 -8 -15 -21 0 -27 4 -22 15 4 10 -1 15 -16 15
-16 0 -18 -3 -9 -14 10 -12 9 -14 -6 -11 -10 2 -32 4 -49 4 -30 1 -32 3 -29
39 1 20 3 37 4 37 0 1 13 0 29 -1 15 -1 46 -3 70 -3z m-2568 -601 c0 -12 -158
-12 -165 1 -4 5 30 9 79 9 49 0 86 -4 86 -10z m70 -220 l0 -40 -343 0 -343 0
4 40 4 40 339 0 339 0 0 -40z m555 -1110 c3 -6 -1 -7 -9 -4 -18 7 -21 14 -7
14 6 0 13 -4 16 -10z"/>
<path d="M2440 3365 c-7 -14 -10 -28 -6 -32 10 -10 50 33 42 46 -11 17 -21 13
-36 -14z m20 -10 c-7 -9 -15 -13 -18 -10 -3 2 1 11 8 20 7 9 15 13 18 10 3 -2
-1 -11 -8 -20z"/>
<path d="M2504 3368 c12 -17 13 -25 3 -37 -10 -14 -10 -14 5 -3 14 11 15 18 6
38 -6 13 -15 24 -20 24 -5 0 -2 -10 6 -22z"/>
<path d="M2835 3319 c-4 -6 -5 -12 -2 -15 2 -3 7 2 10 11 7 17 1 20 -8 4z"/>
<path d="M2915 3319 c-4 -6 -5 -12 -2 -15 2 -3 7 2 10 11 7 17 1 20 -8 4z"/>
<path d="M2470 3306 c0 -2 7 -7 16 -10 8 -3 12 -2 9 4 -6 10 -25 14 -25 6z"/>
<path d="M3770 3199 c0 -11 14 -33 32 -49 17 -16 29 -32 26 -35 -10 -10 -40 8
-49 29 -5 13 -8 -22 -6 -99 1 -72 6 -120 12 -120 6 0 21 -8 34 -17 19 -13 22
-20 13 -31 -9 -10 -8 -18 3 -33 8 -10 15 -22 15 -26 0 -9 -26 -4 -41 8 -39 30
-39 29 -36 -95 1 -66 5 -122 9 -126 3 -4 68 -7 143 -7 148 0 155 2 155 53 0
28 35 59 58 51 9 -3 5 -11 -12 -27 -14 -13 -28 -35 -32 -49 -6 -24 -4 -26 25
-26 17 0 31 4 31 9 0 5 9 11 20 14 13 3 18 10 14 21 -4 11 -1 16 10 16 18 0
22 -15 6 -25 -5 -3 -7 -12 -3 -20 4 -12 28 -15 115 -15 l110 0 -6 208 c-11
351 -16 414 -33 400 -11 -9 -16 -9 -22 1 -9 13 -111 12 -111 -2 0 -5 -6 -5
-12 0 -17 10 -68 13 -68 3 0 -5 6 -11 13 -13 6 -3 2 -6 -9 -6 -12 -1 -25 7
-28 16 -6 15 -8 15 -17 3 -8 -11 -12 -12 -16 -2 -6 16 -33 15 -57 -3 -16 -12
-20 -12 -33 0 -11 12 -17 12 -28 2 -11 -10 -11 -13 1 -15 8 -2 12 -8 8 -13 -3
-5 -10 -7 -15 -4 -5 4 -9 -3 -9 -14 0 -11 5 -23 11 -27 8 -4 7 -9 -2 -15 -24
-15 -32 -10 -27 16 4 21 2 24 -19 23 -15 -2 -26 -10 -29 -25 -6 -23 -24 -32
-24 -12 0 5 -4 7 -10 4 -5 -3 -19 0 -29 7 -16 11 -17 16 -6 31 9 13 14 14 17
6 3 -9 6 -8 11 3 4 13 1 16 -19 12 -19 -3 -24 0 -24 16 0 16 -7 20 -30 20 -24
0 -30 -4 -30 -21z m477 -29 c1 -11 -3 -23 -9 -26 -6 -4 -8 -2 -4 4 3 5 0 13
-6 15 -10 4 -9 8 2 16 8 6 15 11 15 11 1 0 1 -9 2 -20z m78 10 c-3 -5 -12 -7
-20 -3 -21 7 -19 13 6 13 11 0 18 -4 14 -10z m-139 -32 c4 -6 3 -8 -3 -5 -14
9 -24 -18 -12 -30 6 -6 4 -10 -5 -10 -8 0 -13 4 -10 9 3 4 0 8 -5 8 -6 0 -11
-6 -11 -12 0 -9 -4 -8 -10 2 -14 22 -12 30 9 30 11 0 23 5 26 10 8 13 12 13
21 -2z m118 -28 c4 0 4 5 1 10 -3 6 3 10 14 10 19 0 20 -2 9 -20 -16 -25 -38
-34 -38 -15 0 9 -6 12 -15 9 -8 -4 -15 -1 -15 6 0 6 5 8 12 4 8 -5 9 -1 5 12
-7 18 -6 18 7 2 7 -10 16 -18 20 -18z m-83 -13 c-10 -9 -11 -8 -5 6 3 10 9 15
12 12 3 -3 0 -11 -7 -18z m77 -45 c2 -7 -2 -10 -12 -6 -9 3 -16 11 -16 16 0
13 23 5 28 -10z m47 -22 l20 -25 -22 19 c-13 11 -23 24 -23 29 0 6 1 8 3 6 1
-2 11 -15 22 -29z m-45 -25 c14 -19 14 -19 -2 -6 -10 7 -18 18 -18 24 0 6 1 8
3 6 1 -2 9 -13 17 -24z m-404 -12 c-10 -10 -19 5 -10 18 6 11 8 11 12 0 2 -7
1 -15 -2 -18z m402 -69 c-4 -3 -12 5 -18 18 -12 22 -12 22 6 6 10 -10 15 -20
12 -24z m79 -60 c2 -5 -6 -10 -16 -11 -14 -1 -18 3 -14 13 6 16 25 14 30 -2z
m-497 -27 c0 -5 -4 -5 -10 -2 -5 3 -10 14 -10 23 0 15 2 15 10 2 5 -8 10 -19
10 -23z m490 -17 c0 -5 -2 -10 -4 -10 -3 0 -8 5 -11 10 -3 6 -1 10 4 10 6 0
11 -4 11 -10z m-434 -32 c-3 -13 -5 -24 -5 -26 -1 -2 -6 0 -11 3 -7 4 -7 13 0
26 14 25 21 24 16 -3z m403 -47 c-15 -5 -22 6 -14 19 6 9 10 9 16 -1 5 -8 4
-15 -2 -18z m-453 4 c-3 -8 1 -21 9 -29 19 -19 19 -26 0 -26 -8 0 -15 5 -15
11 0 5 -4 8 -9 5 -5 -3 -12 1 -15 10 -10 25 -7 32 12 37 9 3 19 5 21 6 2 0 1
-6 -3 -14z m364 5 c0 -5 -2 -10 -4 -10 -3 0 -8 5 -11 10 -3 6 -1 10 4 10 6 0
11 -4 11 -10z"/>
<path d="M3850 3209 c0 -10 40 -21 85 -24 22 -1 35 0 28 2 -7 2 -10 10 -7 18
4 11 -7 13 -50 12 -31 -1 -56 -5 -56 -8z"/>
<path d="M2618 3095 c-3 -50 -1 -55 18 -55 14 0 21 6 21 18 0 35 4 39 43 40
l40 2 0 -148 0 -147 73 0 73 0 -8 45 c-4 25 -9 91 -10 148 l-3 102 88 0 c79 0
87 2 87 19 0 27 -25 31 -232 31 l-186 0 -4 -55z m211 -129 c1 -28 4 -59 7 -68
6 -20 -11 -25 -20 -5 -5 9 -7 9 -12 -2 -5 -11 -8 -11 -15 0 -6 10 -9 11 -9 2
0 -7 -5 -13 -11 -13 -6 0 -8 9 -3 23 4 12 6 43 5 68 -2 44 -1 45 27 45 27 0
29 -2 31 -50z"/>
<path d="M2798 2933 c-23 -6 -23 -18 0 -20 10 -1 19 5 19 13 0 8 -1 13 -1 13
-1 -1 -9 -3 -18 -6z"/>
<path d="M3271 3103 c-19 -21 -6 -28 25 -14 15 6 24 15 20 18 -12 12 -31 11
-45 -4z"/>
<path d="M3106 3085 c-20 -30 -20 -37 -2 -128 8 -40 18 -91 21 -114 5 -32 14
-48 37 -64 28 -20 34 -21 86 -9 32 7 63 17 70 23 7 5 16 7 19 3 4 -4 2 -11 -6
-15 -16 -10 60 -21 150 -21 76 0 133 15 109 30 -9 5 -21 3 -34 -6 -31 -21 -89
-17 -122 8 -18 14 -24 16 -15 5 18 -23 0 -22 -48 3 -21 10 -42 16 -45 12 -4
-3 -4 1 0 11 3 10 1 17 -6 17 -6 0 -8 5 -5 10 3 6 2 10 -4 10 -5 0 -12 -8 -16
-17 -3 -10 -23 -30 -44 -45 -33 -22 -42 -24 -61 -15 -24 12 -35 43 -19 53 5 3
6 11 2 17 -12 20 -12 37 0 37 9 0 9 2 0 8 -9 6 -5 13 12 26 31 23 32 44 2 51
-29 8 -56 55 -50 89 3 14 9 26 14 26 5 0 9 5 9 10 0 20 -38 9 -54 -15z"/>
<path d="M2914 3048 c-9 -14 -15 -248 -6 -248 3 0 10 7 16 16 11 14 13 14 25
0 12 -14 11 -16 -5 -17 -14 -1 -13 -3 6 -9 46 -15 46 -14 42 75 -6 136 -47
232 -78 183z m32 -77 c-4 -5 -1 -11 5 -13 7 -2 13 -16 15 -31 2 -19 -2 -27
-14 -27 -13 0 -13 -3 4 -16 10 -8 13 -13 7 -9 -8 4 -13 0 -13 -9 0 -9 -6 -16
-14 -16 -11 0 -14 15 -13 65 1 46 6 65 15 65 7 0 11 -4 8 -9z"/>
<path d="M2651 2993 c1 -10 1 -51 0 -90 -1 -66 -3 -73 -21 -73 -17 0 -20 -7
-20 -46 0 -50 16 -56 37 -13 7 13 13 18 13 11 0 -11 3 -11 14 0 18 19 21 209
3 220 -19 12 -28 9 -26 -9z"/>
<path d="M3416 2992 c-11 -11 -6 -19 20 -31 23 -10 25 -9 22 10 -3 21 -30 34
-42 21z"/>
<path d="M3335 2893 c-33 -8 -42 -23 -13 -23 14 0 31 7 38 15 13 15 10 16 -25
8z"/>
<path d="M3610 2855 c-1 -11 -1 -24 0 -30 2 -5 3 -17 2 -27 -1 -18 26 -28 80
-28 31 0 35 3 31 20 -3 11 -9 17 -14 14 -5 -3 -9 -1 -9 4 0 6 -8 8 -18 5 -19
-4 -55 22 -65 47 -4 11 -6 10 -7 -5z"/>
<path d="M3176 2817 c3 -10 9 -15 12 -12 3 3 0 11 -7 18 -10 9 -11 8 -5 -6z"/>
<path d="M2400 2630 l0 -30 320 0 320 0 0 30 0 30 -320 0 -320 0 0 -30z"/>
<path d="M4566 2505 c4 -8 8 -15 10 -15 2 0 4 7 4 15 0 8 -4 15 -10 15 -5 0
-7 -7 -4 -15z"/>
<path d="M4188 2503 c7 -3 16 -2 19 1 4 3 -2 6 -13 5 -11 0 -14 -3 -6 -6z"/>
<path d="M3140 2422 c0 -5 7 -9 15 -9 8 0 15 4 15 9 0 4 -7 8 -15 8 -8 0 -15
-4 -15 -8z"/>
<path d="M3180 2423 c0 -5 14 -8 30 -8 17 0 30 3 30 8 0 4 -13 7 -30 7 -16 0
-30 -3 -30 -7z"/>
<path d="M3252 2425 c8 -8 58 -13 58 -6 0 4 -14 8 -31 9 -17 0 -29 -1 -27 -3z"/>
<path d="M3330 2422 c0 -5 7 -9 15 -9 8 0 15 4 15 9 0 4 -7 8 -15 8 -8 0 -15
-4 -15 -8z"/>
<path d="M3375 2420 c3 -5 8 -10 11 -10 2 0 4 5 4 10 0 6 -5 10 -11 10 -5 0
-7 -4 -4 -10z"/>
<path d="M3420 2419 c0 -5 5 -7 10 -4 6 3 10 8 10 11 0 2 -4 4 -10 4 -5 0 -10
-5 -10 -11z"/>
<path d="M3480 2426 c0 -2 7 -6 15 -10 8 -3 15 -1 15 4 0 6 -7 10 -15 10 -8 0
-15 -2 -15 -4z"/>
<path d="M3520 2426 c0 -2 9 -6 20 -9 11 -3 18 -1 14 4 -5 9 -34 13 -34 5z"/>
<path d="M3580 2419 c0 -3 16 -6 35 -5 19 0 35 5 35 9 0 4 -16 7 -35 5 -19 -1
-35 -5 -35 -9z"/>
<path d="M3830 2420 c0 -5 7 -7 15 -4 8 4 15 8 15 10 0 2 -7 4 -15 4 -8 0 -15
-4 -15 -10z"/>
<path d="M3870 2426 c0 -2 9 -6 20 -9 11 -3 20 -1 20 4 0 5 -9 9 -20 9 -11 0
-20 -2 -20 -4z"/>
<path d="M4004 2423 c10 -11 37 -12 30 -2 -3 5 -12 9 -21 9 -9 0 -13 -3 -9 -7z"/>
<path d="M4110 2420 c0 -5 7 -7 15 -4 8 4 15 8 15 10 0 2 -7 4 -15 4 -8 0 -15
-4 -15 -10z"/>
<path d="M4153 2423 c9 -8 47 -11 47 -4 0 5 -11 9 -25 9 -14 0 -24 -2 -22 -5z"/>
<path d="M4584 2423 c10 -11 36 -12 36 -2 0 5 -10 9 -22 9 -12 0 -18 -3 -14
-7z"/>
<path d="M2510 2409 c0 -5 5 -7 10 -4 6 3 10 8 10 11 0 2 -4 4 -10 4 -5 0 -10
-5 -10 -11z"/>
<path d="M2600 2411 c0 -5 11 -8 24 -7 13 0 22 4 19 9 -6 10 -43 9 -43 -2z"/>
<path d="M2730 2408 c0 -4 9 -8 20 -8 11 0 20 4 20 9 0 6 -9 9 -20 8 -11 -1
-20 -5 -20 -9z"/>
<path d="M3185 2380 c-3 -5 -1 -10 4 -10 6 0 11 5 11 10 0 6 -2 10 -4 10 -3 0
-8 -4 -11 -10z"/>
<path d="M3280 2379 c0 -5 9 -9 20 -9 11 0 20 2 20 4 0 2 -9 6 -20 9 -11 3
-20 1 -20 -4z"/>
<path d="M3906 2378 c3 -5 10 -6 15 -3 13 9 11 12 -6 12 -8 0 -12 -4 -9 -9z"/>
<path d="M3945 2380 c-3 -5 -1 -10 4 -10 6 0 11 5 11 10 0 6 -2 10 -4 10 -3 0
-8 -4 -11 -10z"/>
<path d="M3985 2379 c-15 -6 -11 -8 18 -8 20 -1 37 1 37 3 0 9 -37 12 -55 5z"/>
<path d="M4079 2379 c-10 -6 -4 -9 19 -9 17 0 32 2 32 4 0 9 -39 13 -51 5z"/>
<path d="M4220 2378 c0 -4 6 -8 14 -8 8 0 17 4 20 8 2 4 -4 8 -15 8 -10 0 -19
-4 -19 -8z"/>
<path d="M4146 2368 c3 -5 10 -6 15 -3 13 9 11 12 -6 12 -8 0 -12 -4 -9 -9z"/>
<path d="M4288 2373 c7 -3 16 -2 19 1 4 3 -2 6 -13 5 -11 0 -14 -3 -6 -6z"/>
<path d="M2476 2362 c-3 -5 1 -9 9 -9 8 0 12 4 9 9 -3 4 -7 8 -9 8 -2 0 -6 -4
-9 -8z"/>
<path d="M2535 2360 c4 -6 11 -8 16 -5 14 9 11 15 -7 15 -8 0 -12 -5 -9 -10z"/>
<path d="M2698 2363 c12 -2 30 -2 40 0 9 3 -1 5 -23 4 -22 0 -30 -2 -17 -4z"/>
<path d="M2885 2360 c3 -5 8 -10 11 -10 2 0 4 5 4 10 0 6 -5 10 -11 10 -5 0
-7 -4 -4 -10z"/>
<path d="M3830 2329 c0 -5 5 -7 10 -4 6 3 10 8 10 11 0 2 -4 4 -10 4 -5 0 -10
-5 -10 -11z"/>
<path d="M3866 2332 c-3 -5 1 -9 9 -9 8 0 15 4 15 9 0 4 -4 8 -9 8 -6 0 -12
-4 -15 -8z"/>
<path d="M3900 2328 c0 -4 7 -8 15 -8 8 0 15 4 15 8 0 5 -7 9 -15 9 -8 0 -15
-4 -15 -9z"/>
<path d="M3976 2328 c7 -12 54 -10 54 2 0 6 -13 9 -29 8 -16 -1 -27 -6 -25
-10z"/>
<path d="M2497 2318 c-7 -4 4 -7 26 -6 20 1 37 4 37 8 0 9 -48 8 -63 -2z"/>
<path d="M2440 1905 l0 -35 275 0 275 0 0 35 0 35 -275 0 -275 0 0 -35z m390
0 c0 -12 -20 -15 -115 -14 -88 1 -115 5 -115 15 0 10 26 13 115 13 94 0 115
-2 115 -14z"/>
<path d="M3140 1905 l0 -35 275 0 275 0 0 35 0 35 -275 0 -275 0 0 -35z m390
0 c0 -12 -20 -15 -115 -14 -88 1 -115 5 -115 15 0 10 26 13 115 13 94 0 115
-2 115 -14z"/>
<path d="M3840 1905 l0 -35 275 0 275 0 0 35 0 35 -275 0 -275 0 0 -35z m390
0 c0 -12 -20 -15 -115 -13 -86 1 -115 5 -115 14 0 10 28 13 115 13 94 0 115
-2 115 -14z"/>
<path d="M4502 3050 c0 -14 2 -19 5 -12 2 6 2 18 0 25 -3 6 -5 1 -5 -13z"/>
<path d="M4522 3050 c0 -14 2 -19 5 -12 2 6 2 18 0 25 -3 6 -5 1 -5 -13z"/>
<path d="M2556 731 c-4 -7 -5 -15 -2 -18 9 -9 19 4 14 18 -4 11 -6 11 -12 0z"/>
</g>
</svg>
