<?xml version="1.0" encoding="utf-8"?>
<!-- Generator: Adobe Illustrator 23.0.4, SVG Export Plug-In . SVG Version: 6.00 Build 0)  -->
<svg version="1.1" id="Capa_1" xmlns="http://www.w3.org/2000/svg" xmlns:xlink="http://www.w3.org/1999/xlink" x="0px" y="0px"
	 viewBox="0 0 512 512" style="enable-background:new 0 0 512 512;" xml:space="preserve">
<style type="text/css">
	.st0{fill:#FFFFFF;}
</style>
<g id="Package-2">
	<path class="st0" d="M490.8,104.5l-232-88c-1.8-0.7-3.8-0.7-5.7,0l-232,88c-3.1,1.2-5.2,4.2-5.2,7.5v288c0,3.3,2,6.3,5.1,7.5
		l232,89.1c1.8,0.7,3.9,0.7,5.7,0l232-88.3c3.1-1.2,5.2-4.2,5.2-7.5V112C496,108.7,493.9,105.7,490.8,104.5z M256,32.6L465.4,112
		L256,191.4l-63.6-24.1l99.6-37.7c4.1-1.6,6.2-6.2,4.6-10.3c-0.8-2.1-2.5-3.8-4.6-4.6L232.3,92c-1.8-0.7-3.8-0.7-5.7,0l-116.4,44.1
		L46.6,112L256,32.6z M120,157l40,15.2v119.5l-40-15.3V157z M132.7,144.7l96.7-36.7l37.1,14.1l-96.7,36.7L132.7,144.7z M32,123.6
		l72,27.3v130.9c0,3.3,2,6.3,5.1,7.5l56,21.4c4.1,1.6,8.8-0.5,10.3-4.6c0.3-0.9,0.5-1.9,0.5-2.9V178.2l72,27.3v272l-216-83V123.6z
		 M264,477.5v-272l216-81.9v271.7L264,477.5z"/>
	<path class="st0" d="M341.1,400.2L293,418.5c-4.1,1.6-6.2,6.2-4.6,10.3c1.2,3.1,4.2,5.2,7.5,5.2c1,0,1.9-0.2,2.8-0.5l48.1-18.3
		c4.2-1.5,6.3-6.1,4.8-10.2c-1.5-4.2-6.1-6.3-10.2-4.8C341.3,400.1,341.2,400.1,341.1,400.2z"/>
	<path class="st0" d="M389.1,381.9L373,388c-4.1,1.6-6.2,6.2-4.6,10.3c1.2,3.1,4.2,5.2,7.5,5.2c1,0,1.9-0.2,2.8-0.5l16.1-6.1
		c4.2-1.5,6.3-6.1,4.8-10.2c-1.5-4.2-6.1-6.3-10.2-4.8C389.3,381.8,389.2,381.9,389.1,381.9z"/>
	<path class="st0" d="M341.1,368.2L293,386.5c-4.1,1.6-6.2,6.2-4.6,10.3c1.2,3.1,4.2,5.2,7.5,5.2c1,0,1.9-0.2,2.8-0.5l48.1-18.3
		c4.2-1.5,6.3-6.1,4.8-10.2c-1.5-4.2-6.1-6.3-10.2-4.8C341.3,368.1,341.2,368.1,341.1,368.2z"/>
	<path class="st0" d="M389.1,349.9L373,356c-4.1,1.6-6.2,6.2-4.6,10.3c1.2,3.1,4.2,5.2,7.5,5.2c1,0,1.9-0.2,2.8-0.5l16.1-6.1
		c4.2-1.5,6.3-6.1,4.8-10.2c-1.5-4.2-6.1-6.3-10.2-4.8C389.3,349.8,389.2,349.9,389.1,349.9z"/>
	<path class="st0" d="M341.1,336.2L293,354.5c-4.1,1.6-6.2,6.2-4.6,10.3c1.2,3.1,4.2,5.2,7.5,5.2c1,0,1.9-0.2,2.8-0.5l48.1-18.3
		c4.2-1.5,6.3-6.1,4.8-10.2c-1.5-4.2-6.1-6.3-10.2-4.8C341.3,336.1,341.2,336.1,341.1,336.2z"/>
	<path class="st0" d="M389.1,317.9L373,324c-4.1,1.6-6.2,6.2-4.6,10.3c1.2,3.1,4.2,5.2,7.5,5.2c1,0,1.9-0.2,2.8-0.5l16.1-6.1
		c4.2-1.5,6.3-6.1,4.8-10.2c-1.5-4.2-6.1-6.3-10.2-4.8C389.3,317.8,389.2,317.9,389.1,317.9z"/>
</g>
</svg>
