<?xml version="1.0" encoding="utf-8"?>
<!-- Generator: Adobe Illustrator 23.0.4, SVG Export Plug-In . SVG Version: 6.00 Build 0)  -->
<svg version="1.1" id="Layer_1" xmlns="http://www.w3.org/2000/svg" xmlns:xlink="http://www.w3.org/1999/xlink" x="0px" y="0px"
	 viewBox="0 0 512 512" style="enable-background:new 0 0 512 512;" xml:space="preserve">
<style type="text/css">
	.st0{fill:#FFFFFF;}
</style>
<g>
	<g>
		<g>
			<path class="st0" d="M235.4,44h41.7c4.5,0,8.1-3.6,8.1-8.1c0-4.5-3.6-8.1-8.1-8.1h-41.7c-4.5,0-8.1,3.6-8.1,8.1
				C227.4,40.4,231,44,235.4,44z"/>
			<path class="st0" d="M496.7,192.7L468.9,78.1c-0.3-1.1-7-27.9-33.6-39.2C416,30.7,355.1,7.6,339.9,1.8c-1.4-1.1-3.2-1.8-5.1-1.8
				h-1.2H178.4c-0.3,0-0.5,0-0.8,0c-0.1,0-0.2,0-0.3,0c-0.1,0-0.3,0-0.4,0.1c-0.1,0-0.3,0.1-0.4,0.1c-0.1,0-0.2,0.1-0.3,0.1
				c-0.1,0-0.3,0.1-0.4,0.1c-0.1,0-0.1,0-0.2,0.1c-3.1,1.2-77.2,29.2-98.8,38.4c-25.6,10.9-32.8,36-33.6,39c0,0,0,0,0,0
				c0,0.1,0,0.1,0,0.1c0,0.1,0,0.1,0,0.1l-19.8,81.4c0,0,0,0,0,0l-8.1,33.2c-1,3.9,1.1,7.9,4.9,9.4l79.5,31.6v237.4v32.9
				c0,4.5,3.6,8.1,8.1,8.1h296.6c4.5,0,8.1-3.6,8.1-8.1v-32.9V317.1c0-4.5-3.6-8.1-8.1-8.1c-4.5,0-8.1,3.6-8.1,8.1V463H197.5
				c-4.5,0-8.1,3.6-8.1,8.1s3.6,8.1,8.1,8.1h198.7v16.7H115.8v-16.7h54.8c4.5,0,8.1-3.6,8.1-8.1c0-4.5-3.6-8.1-8.1-8.1h-54.8V228.2
				v-34.7v-62.6c0-1.5-0.4-2.9-1.2-4.2L73.9,59.3c2.6-2.1,5.7-4,9.2-5.5c16.6-7,66.2-26,87.9-34.2c5.2,47.8,42.3,86.2,85.7,86.2
				c43.2,0,80.2-38.2,85.6-85.8c22.2,8.4,70.5,26.9,86.7,33.8c3.5,1.5,6.6,3.4,9.2,5.5l-40.8,67.4c-0.8,1.3-1.2,2.7-1.2,4.2v62.6
				v34.7v62c0,4.5,3.6,8.1,8.1,8.1c4.5,0,8.1-3.6,8.1-8.1v-56.5l79.5-31.6C495.6,200.6,497.7,196.6,496.7,192.7z M99.6,216.3
				l-67-26.6l4.2-17.1l62.8,26.3L99.6,216.3L99.6,216.3z M99.6,133.1v48.2l-59-24.7l18.1-74.7c0-0.1,1.1-4.3,4.1-9.5L99.6,133.1z
				 M256.6,89.6c-32,0-66-29.2-69.8-73.4h139.6C322.6,60.4,288.5,89.6,256.6,89.6z M412.4,133.1l36.7-60.7c1.9,3.5,3.1,6.4,3.6,8.1
				c0,0,0,0,0,0c0.1,0.2,0.1,0.3,0.1,0.4c0,0,0,0.1,0,0.1c0,0.1,0.1,0.2,0.1,0.3c0,0,0,0.1,0,0.1c0,0.1,0,0.1,0.1,0.2
				c0,0,0,0.1,0,0.1c0,0,0,0.1,0,0.1c0,0,0,0,0,0.1c0,0,0,0.1,0,0.1l18.1,74.7l-59,24.7L412.4,133.1L412.4,133.1z M412.4,216.3
				v-17.4l62.8-26.3l4.2,17.1L412.4,216.3z"/>
		</g>
	</g>
</g>
</svg>
